<svg width="95" height="95" viewBox="0 0 95 95" fill="none" xmlns="http://www.w3.org/2000/svg">
<path d="M43.52 4.75927C43.4272 4.8706 43.4551 5.00048 43.6313 5.44579C44.1323 6.65185 44.1973 6.958 44.1973 8.07128C44.1973 9.24023 44.0488 9.92675 43.6035 10.9287C43.1118 11.9956 42.4717 12.812 40.6812 14.6582C39.707 15.6602 38.7051 16.7363 38.4639 17.0518C37.499 18.3042 36.9517 19.4546 36.6826 20.7441C36.4692 21.7461 36.5435 23.7036 36.8218 24.7241C37.2393 26.2363 38.2134 27.9619 39.5493 29.5669C39.9482 30.04 40.2451 30.4297 40.208 30.4297C40.1802 30.4297 39.8926 30.2905 39.5771 30.1328C38.8999 29.771 37.6753 28.5928 37.1187 27.7578C36.562 26.9321 35.9404 25.5869 35.7085 24.7241C35.4302 23.6851 35.3745 21.9409 35.5693 20.6885C35.6807 19.9741 35.6899 19.7051 35.6157 19.6123C35.5322 19.5102 34.9478 19.4824 32.5635 19.4824C29.1587 19.4824 29.4185 19.3989 29.1958 20.5122C28.7505 22.6645 27.4609 24.6499 25.5312 26.1528C24.1396 27.229 22.2935 27.9062 20.3638 28.064C19.0835 28.166 18.9629 28.1938 18.8423 28.4443C18.7773 28.602 18.7402 29.7153 18.7402 31.979V35.2817L18.165 35.2261C14.4355 34.9106 14.3892 34.9106 14.1758 35.2817C14.083 35.4487 14.0552 38.8442 14.0552 52.4634V69.4409L14.3057 69.9697C14.6675 70.749 15.2612 71.2871 16.2632 71.7603C17.7383 72.4561 19.668 72.9292 21.6162 73.0869L22.4697 73.1519L22.9336 74.0332C23.9355 75.9443 24.9097 77.1968 26.8579 79.0337C31.5151 83.4312 39.373 88.1069 45.5889 90.1943C46.9062 90.6396 47.0176 90.6582 47.7227 90.6118C48.2886 90.584 48.7803 90.4634 49.6802 90.1572C55.1538 88.2646 61.1655 84.9155 66.0083 81.0562C68.9307 78.7275 70.8604 76.5288 72.1313 74.0889L72.623 73.1519L73.625 73.0869C76.334 72.9014 79.0059 72.02 80.0635 70.9624C80.3047 70.7212 80.6294 70.2759 80.7778 69.979L81.0376 69.4409V52.4634C81.0376 33.0273 81.1304 34.9756 80.1748 34.9756C79.8872 34.9756 79.043 35.0405 78.3008 35.1147C77.5586 35.189 76.8257 35.2539 76.6587 35.2539H76.3618L76.334 31.8677C76.3062 28.8896 76.2876 28.4722 76.1577 28.333C76.0464 28.231 75.6567 28.1475 74.7754 28.0547C74.0981 27.9897 73.2261 27.8413 72.8457 27.7393C69.5986 26.8486 66.8433 24.0283 66.0176 20.7441C65.8877 20.2432 65.7114 19.7515 65.6279 19.6587C65.4795 19.4917 65.3125 19.4824 62.5386 19.501L59.6069 19.5288L59.6162 20.0391C59.6162 20.3174 59.6533 21.0039 59.6997 21.5698C59.8203 23.3047 59.4863 24.9189 58.6699 26.5518C57.7236 28.4351 56.2949 29.8638 54.8662 30.374C54.5137 30.4946 54.5415 30.4575 55.3857 29.604C57.2783 27.7114 58.2246 25.8652 58.5957 23.3603C58.8555 21.6162 58.6421 19.3247 58.0762 17.6269C57.8257 16.8755 57.1763 15.4746 56.7124 14.7231C55.8682 13.3223 54.4116 11.5874 54.189 11.7266C54.1426 11.7544 54.0869 11.9863 54.0498 12.2461C53.8735 13.6006 53.1499 15.3447 52.4541 16.1055L52.0366 16.5601L52.0923 16.0962C52.2964 14.3149 52.2222 13.313 51.7954 12.1162C50.9233 9.68554 49.0957 7.48681 46.5908 5.86328C45.2549 5.00048 43.7705 4.47167 43.52 4.75927ZM47.6855 12.3481C48.1401 12.9326 48.6411 13.9624 48.8359 14.7046C49.1885 16.1426 49.1143 17.1352 48.5205 18.9907C48.2329 19.8628 48.1494 20.271 48.1494 20.7627C48.1494 21.8574 48.4834 22.6367 48.9565 22.6367C49.2998 22.6367 50.1904 22.145 50.9419 21.542C52.0923 20.6328 52.5933 19.9648 52.7324 19.167L52.7974 18.8144L53.0757 19.0742C53.4746 19.4546 54.1519 20.4936 54.4116 21.1245C55.0518 22.7017 55.0981 24.854 54.5322 26.626C54.1704 27.7764 53.7437 28.4722 52.8438 29.3628C51.7676 30.439 51.3594 30.6523 50.2554 30.6894C49.8008 30.708 49.3926 30.6894 49.3555 30.6523C49.3091 30.606 49.3555 30.3184 49.4668 30.0122C49.606 29.5854 49.6338 29.335 49.5874 28.9175C49.4575 27.7393 49.1328 27.2197 47.4907 25.6055C46.1548 24.2788 45.8115 23.7407 45.6074 22.5718L45.4775 21.8481L45.2549 22.3584C44.8003 23.3511 44.6982 24.4551 44.9395 25.6147C45.0879 26.3013 45.4312 27.0249 46.1362 28.1475C46.9712 29.4927 47.1753 30.0864 46.9434 30.5317C46.8506 30.6894 46.73 30.708 45.561 30.708C44.1045 30.708 43.854 30.6431 43.1396 30.1235C41.3955 28.834 40.4771 27.3682 40.1152 25.3179C39.772 23.3232 40.2729 21.4492 41.6553 19.5845C41.9707 19.167 43.0283 17.998 44.0117 16.9868C45.2178 15.7436 45.9321 14.9365 46.2197 14.4634C46.6558 13.7676 47.1289 12.543 47.1289 12.1162C47.1289 11.7637 47.2681 11.8193 47.6855 12.3481ZM31.6357 30.2349C31.6357 30.5503 31.3203 31.9883 31.1348 32.5356C30.7544 33.6396 30.3462 34.3169 29.4927 35.2075C28.6206 36.126 28.5557 36.2559 27.9712 38.1763C27.6836 39.1411 27.396 40.6904 27.498 40.7925C27.5166 40.811 27.7114 40.477 27.9341 40.0317C28.2217 39.438 28.4814 39.0762 28.9268 38.6309C29.8823 37.6846 31.2368 36.9238 31.979 36.9238C32.248 36.9238 32.2295 37.0259 31.7656 38.0278C30.9585 39.7627 29.7153 40.9595 27.999 41.6553L27.3218 41.9243V43.5293C27.3218 44.8374 27.3589 45.3384 27.5444 46.2383C27.8506 47.7969 27.8691 47.834 27.999 46.8784C28.2588 44.958 29.001 43.6221 30.374 42.6108C30.7637 42.3232 30.9492 42.2305 31.0234 42.3047C31.1719 42.4531 31.0977 43.8447 30.9028 44.5776C30.6616 45.4404 30.1514 46.6279 29.8081 47.1382C29.6504 47.3608 29.2515 47.8433 28.9082 48.2051C28.5742 48.5762 28.2959 48.938 28.2959 49.0308C28.2959 49.2998 28.936 50.7656 29.5205 51.814C30.0493 52.7695 30.7637 53.9014 30.8379 53.9014C30.8564 53.9014 30.7915 53.6416 30.6895 53.3169C30.3926 52.4077 30.3555 50.8213 30.6152 49.8193C30.8657 48.8452 31.2554 48.001 31.6265 47.6484L31.9141 47.3794L32.0439 47.6948C32.2017 48.0752 32.4336 49.3276 32.5171 50.2368C32.5913 51.0903 32.3779 52.5005 32.0068 53.5767C31.5615 54.8755 31.5615 54.8477 32.0068 55.4321C32.7026 56.332 35.6064 59.0039 35.4302 58.5771C35.4116 58.5308 35.1333 57.9741 34.8086 57.334C34.2705 56.2485 34.2241 56.1186 34.1499 55.293C34.0571 54.3003 34.1592 52.918 34.3818 52.1108C34.4746 51.8047 34.688 51.9624 35.0776 52.6025C35.6157 53.5117 36.126 54.7363 36.3672 55.7104C36.5527 56.4341 36.5713 56.6846 36.5156 57.6123C36.4878 58.1968 36.4321 58.8276 36.4043 59.0039L36.3486 59.3286L37.6846 59.9873C38.4175 60.3584 39.3174 60.7759 39.6792 60.915C40.3193 61.1655 40.3564 61.2026 40.3564 61.4717C40.3564 61.9634 40.1709 62.0283 39.4473 61.7964C39.104 61.6758 38.436 61.3975 37.9629 61.1655L37.1001 60.748L36.6641 60.9336C35.2817 61.5088 34.1499 61.7407 32.9531 61.6665C31.7192 61.6016 30.1514 61.0913 30.1514 60.7573C30.1514 60.6089 30.7266 60.312 31.5894 60.0244C33.1851 59.5049 34.1685 59.4492 35.2817 59.8296C35.5693 59.9316 35.8105 59.9966 35.8105 59.9873C35.8105 59.9687 35.4951 59.7368 35.1055 59.4678C34.7158 59.1987 34.1035 58.7349 33.7324 58.4473L33.0737 57.9185L31.6821 57.8628C30.8193 57.835 30.0771 57.7607 29.7339 57.6587C28.3701 57.2876 26.7466 56.2485 25.9951 55.2744C25.4849 54.6157 25.5127 54.458 26.1436 54.458C27.8042 54.458 29.9009 55.2187 31.4038 56.3691C31.645 56.5454 31.8584 56.6846 31.877 56.666C31.8955 56.6475 31.6357 56.3228 31.311 55.9424C30.7358 55.2744 29.5391 53.5674 29.0195 52.6768C28.7783 52.2593 28.7598 52.2407 28.231 52.1851C26.8301 52.0273 25.856 51.5542 24.8633 50.5615C23.8706 49.5596 23.1934 48.3071 23.1934 47.4536C23.1934 47.0269 23.3604 47.0269 24.1675 47.4536C25.4941 48.1401 26.6816 49.1421 27.5537 50.3018C27.8599 50.7007 28.1104 51.0068 28.1104 50.9697C28.1104 50.9233 27.9619 50.5615 27.7949 50.144C27.6187 49.7358 27.3589 49.0029 27.229 48.5205C27.0898 48.0381 26.8857 47.3052 26.7559 46.897L26.5332 46.1548L25.8745 45.7837C25.0024 45.3013 24.3159 44.5498 23.8521 43.5757C23.3604 42.5552 23.1934 41.8965 23.1377 40.6811C23.0728 39.271 23.1191 39.2246 23.8984 39.9853C24.9839 41.0615 25.8003 42.3882 26.2178 43.7891L26.4312 44.4849L26.4404 43.9746C26.4404 43.6963 26.5054 42.8984 26.5796 42.2119C26.8022 40.1802 26.793 40.1523 26.2549 39.4751C25.2622 38.2319 24.9097 37.0259 24.9839 35.1797C25.021 34.0015 25.2529 32.9438 25.4756 32.8696C25.5869 32.8325 26.2178 33.6953 26.5332 34.3169C26.8208 34.8921 27.1641 36.293 27.2383 37.2393L27.3032 38.0371L27.665 36.998C27.8877 36.3579 28.0825 35.5508 28.166 34.9385C28.3979 33.2964 28.7783 32.4707 29.8174 31.376C30.5967 30.5596 31.6357 29.9009 31.6357 30.2349ZM64.2549 30.5039C64.8765 30.9121 65.7207 31.7842 66.0825 32.3965C66.4443 33.0088 66.769 34.0757 66.8804 34.9756C66.936 35.4116 67.168 36.3301 67.3813 37.0166L67.7896 38.2598L67.8452 37.332C67.9102 36.3394 68.1421 35.3096 68.4668 34.5674C68.7358 33.9365 69.4873 32.8232 69.6079 32.8696C69.8306 32.9438 70.0625 33.9922 70.1089 35.0869C70.1924 36.9702 69.8306 38.2041 68.8379 39.4194L68.2905 40.0967L68.3369 40.709C68.3647 41.0522 68.4204 41.6645 68.4668 42.0728C68.5132 42.481 68.5781 43.1582 68.6152 43.5757L68.6802 44.3457L68.9956 43.3901C69.3389 42.3511 69.5894 41.8686 70.1924 41.0986C70.7212 40.4214 71.7881 39.373 71.8716 39.4565C71.9087 39.5029 71.9272 39.9761 71.9272 40.5234C71.8901 42.8892 70.8511 44.8467 69.1069 45.8579L68.4946 46.2104L68.2534 47.0176C68.1235 47.4629 67.9194 48.1587 67.8081 48.5669C67.6968 48.9751 67.4463 49.6802 67.2515 50.1348C67.0566 50.5986 66.9082 50.979 66.9175 50.9976C66.936 51.0068 67.168 50.7378 67.4277 50.3945C68.4482 49.0586 70.0439 47.7598 71.2129 47.3237C71.4912 47.2124 71.7603 47.1289 71.8066 47.1289C72.0757 47.1289 71.686 48.4092 71.1479 49.3276C70.9717 49.6245 70.5171 50.1812 70.1367 50.5708C69.2739 51.4336 68.4204 51.8882 67.2607 52.1016C66.8247 52.1851 66.4072 52.2778 66.333 52.3149C66.2588 52.3613 65.9619 52.7695 65.6836 53.2241C65.0063 54.3281 64.4033 55.1538 63.6797 55.9702C63.355 56.3413 63.0859 56.666 63.0859 56.7031C63.0859 56.7402 63.3643 56.564 63.6982 56.3042C64.4961 55.7012 65.999 54.9775 66.9731 54.7363C67.8638 54.5137 69.1904 54.4023 69.3853 54.5415C69.6821 54.7363 68.6709 55.8218 67.4185 56.6475C66.1289 57.501 65.1177 57.7978 63.2715 57.8628L61.9263 57.9092L61.5552 58.2524C61.3511 58.438 60.7573 58.9019 60.2378 59.2729C59.709 59.644 59.2822 59.9595 59.2822 59.978C59.2822 59.9966 59.5234 59.9224 59.8203 59.8203C60.5347 59.5513 61.7407 59.5605 62.7612 59.8296C63.6333 60.0615 64.8486 60.6274 64.8486 60.813C64.8486 61.147 63.3457 61.5923 61.9634 61.6665C60.8037 61.7314 59.9502 61.5737 58.707 61.0728L57.8999 60.748L57.0649 61.1748C55.9888 61.7036 54.959 62.0469 54.8198 61.9077C54.7642 61.852 54.7085 61.6665 54.7085 61.4995L54.6899 61.1934L55.9888 60.6274C56.7031 60.312 57.5938 59.9038 57.9648 59.7183C58.7256 59.3286 58.6885 59.4399 58.5308 58.0019C58.3638 56.4805 58.605 55.3486 59.4678 53.5674C59.9316 52.6025 60.3213 52.0459 60.5254 52.0459C60.8594 52.0459 61.0728 54.3931 60.8594 55.6455C60.7573 56.2856 60.0337 57.9185 59.5977 58.5122C59.3657 58.8369 59.4956 58.772 60.2285 58.1782C61.2583 57.3618 63.0303 55.5806 63.3179 55.0796L63.5684 54.6436L63.3179 54.1611C62.9653 53.4932 62.6221 52.0645 62.5571 51.0254C62.52 50.3574 62.5571 49.8657 62.6963 49.0308C63.0396 47.0547 63.1694 46.9712 63.8467 48.335C64.626 49.8936 64.8394 51.5171 64.4868 53.02C64.3848 53.4282 64.3198 53.7715 64.3291 53.79C64.3662 53.8179 65.6001 51.749 65.9062 51.1367C66.166 50.6265 66.7969 49.105 66.7969 48.9937C66.7969 48.9565 66.4629 48.5576 66.0547 48.103C64.8394 46.7485 64.0229 44.7817 63.9858 43.0654C63.9673 42.1655 64.0786 42.1191 64.8579 42.7314C66.1938 43.7798 66.7783 44.958 67.1309 47.2681L67.1958 47.7319L67.4092 46.8877C67.6597 45.8579 67.8174 44.457 67.8174 43.2881C67.8174 41.8872 67.8174 41.8965 66.9824 41.5718C66.0732 41.2285 65.6001 40.9316 64.9043 40.2729C64.2642 39.6606 63.7539 38.9463 63.3179 38.0186C62.9468 37.2393 62.9004 36.9238 63.1787 36.9238C63.5127 36.9238 64.3662 37.3042 65.0527 37.7495C65.9341 38.3247 66.6484 39.1133 67.1494 40.0596C67.3721 40.477 67.5669 40.8203 67.5762 40.8203C67.6782 40.8203 67.335 39.0947 67.0195 38.0186C66.5464 36.3857 66.2773 35.8477 65.6558 35.3281C64.6816 34.4932 63.8931 33.0088 63.6055 31.4595C63.4199 30.5039 63.4199 30.1514 63.5776 30.1514C63.6519 30.1514 63.9487 30.3091 64.2549 30.5039ZM58.1689 32.6562C58.1689 33.0273 57.9556 33.8345 57.7329 34.2612C57.4268 34.8735 56.9351 35.3931 56.4248 35.6436L55.9888 35.8569L47.7783 35.8848C42.1562 35.9033 39.4194 35.8755 39.0947 35.8105C37.9443 35.5693 37.1929 34.5395 36.9609 32.9067L36.9053 32.4707H47.5371C58.0205 32.4707 58.1689 32.4707 58.1689 32.6562ZM18.6196 37.731C18.7217 37.7681 18.7402 40.2451 18.7588 52.2222L18.7866 66.6577L19.1577 66.7783C19.7236 66.9639 21.1152 67.0195 22.1357 66.8989C22.98 66.7876 25.1138 66.2773 28.1567 65.4517C28.8247 65.2754 30.0122 65.0156 30.8008 64.8765C32.1089 64.6445 32.4429 64.626 34.5117 64.626C36.2373 64.626 37.0073 64.6631 37.7124 64.7837C41.2378 65.396 44.1045 66.8433 46.5908 69.2832L47.4907 70.1645L48.3257 69.3667C51.6284 66.231 55.1445 64.7559 59.7461 64.5981C62.4458 64.5054 63.9858 64.728 68.2349 65.8413C72.0942 66.8433 72.4653 66.9175 73.9868 66.9268C74.7939 66.936 75.4712 66.8896 75.7588 66.8154C76.1855 66.7041 76.2505 66.6577 76.2969 66.4072C76.3247 66.2495 76.3525 59.7461 76.3525 51.9531V37.7773L76.5659 37.7217C76.6772 37.6938 77.1597 37.6382 77.6328 37.6103L78.4863 37.5454V52.9551C78.4863 64.2642 78.4585 68.4297 78.3843 68.5967C78.2544 68.8657 77.3452 69.3667 76.4453 69.6636C75.0352 70.1089 73.1055 70.2573 71.2964 70.0347C70.4893 69.9419 68.5503 69.4687 66.1475 68.7915C61.2954 67.4185 56.9165 67.6133 53.3911 69.3667C51.749 70.1831 49.9307 71.584 49.0771 72.688C48.5112 73.4302 48.4092 73.4766 47.5742 73.4766H46.8506L45.5332 72.1499C43.6963 70.3037 42.249 69.376 40.106 68.6616C38.603 68.1606 37.5918 67.9937 35.6157 67.938C32.7397 67.8545 30.9771 68.105 27.6279 69.0791C24.7891 69.8955 24.0654 70.0439 22.5347 70.1089C21.6719 70.146 20.9019 70.1182 20.4102 70.0532C19.4546 69.9141 17.8682 69.4038 17.2002 69.0142C16.7827 68.7822 16.6899 68.6802 16.6343 68.3926C16.5508 68.0122 16.5508 66.9268 16.5879 49.5503L16.6064 37.5454L17.5527 37.6196C18.063 37.6567 18.5454 37.7031 18.6196 37.731ZM54.8755 37.8701C54.9404 37.9351 54.6807 38.9092 54.5137 39.2432C54.2817 39.6978 53.8271 40.1523 53.4004 40.375C53.0479 40.5605 52.8716 40.5605 47.5464 40.5605C42.1841 40.5605 42.0449 40.5605 41.6831 40.3657C41.1079 40.0781 40.5698 39.4102 40.3564 38.7051C40.1338 37.9814 40.1245 37.8701 40.3286 37.833C40.5513 37.7959 54.8384 37.8237 54.8755 37.8701ZM51.6748 43.0654C51.6748 43.186 51.5913 43.9004 51.4893 44.6704C50.6543 50.8213 49.7822 57.436 49.5874 59.0503C49.4575 60.1265 49.3276 61.1562 49.2998 61.3418L49.2441 61.6943H47.5928C46.4702 61.6943 45.9136 61.6572 45.8672 61.5923C45.8301 61.5366 45.561 59.5605 45.2642 57.2041C44.6704 52.4819 43.5664 44.3086 43.418 43.52C43.3716 43.251 43.3252 42.9819 43.3252 42.9448C43.3252 42.8984 45.2085 42.8613 47.5 42.8613H51.6748V43.0654ZM50.4131 63.5127C50.5244 63.5591 50.5615 63.6982 50.5615 64.0972C50.5615 65.1919 50.0234 66.0269 49.0029 66.5C48.5391 66.7227 48.3535 66.7505 47.5464 66.7505C46.7207 66.7505 46.563 66.7227 46.0898 66.4907C45.3848 66.1475 44.8745 65.5537 44.6797 64.8672C44.5034 64.227 44.4849 63.7261 44.6426 63.5684C44.7261 63.4849 45.4868 63.457 47.5093 63.457C49.0308 63.457 50.3296 63.4849 50.4131 63.5127ZM40.2451 79.7202L40.2637 82.7632L39.6885 82.7354L39.104 82.7075L39.0762 80.4624L39.0576 78.2173L38.4731 78.4956C38.1577 78.644 37.8423 78.7646 37.7866 78.7646C37.7031 78.7646 37.666 78.5698 37.666 78.106C37.666 77.4565 37.666 77.4473 37.9536 77.3452C38.1206 77.2803 38.5474 77.104 38.9092 76.937C39.3081 76.7607 39.6978 76.6494 39.8926 76.6587L40.2173 76.6772L40.2451 79.7202ZM44.7725 76.8257C45.7559 77.2988 46.1548 78.1895 46.0898 79.7295C46.0527 80.4995 45.9971 80.7686 45.7837 81.251C45.4775 81.9375 44.8281 82.5684 44.2715 82.7354C43.5107 82.9673 42.4531 82.8281 42.147 82.457C42.0542 82.3457 42.0542 82.2437 42.1748 81.9468L42.3232 81.5664L42.6572 81.7056C43.1025 81.8911 43.7798 81.8262 44.1602 81.5479C44.3271 81.4272 44.5591 81.1211 44.6797 80.8613C44.9766 80.2212 44.9673 80.1006 44.6333 80.3511C44.0303 80.7964 42.7314 80.6572 42.0913 80.0728C41.6367 79.6645 41.4697 79.2842 41.4697 78.6719C41.4697 77.8369 41.8965 77.1411 42.6294 76.8071C43.1582 76.5566 44.2529 76.5659 44.7725 76.8257ZM50.1069 76.7236C50.6357 76.8721 51.1738 77.4009 51.3965 78.0039C51.5728 78.4678 51.5913 78.6719 51.5542 79.5996C51.5264 80.416 51.4707 80.7964 51.3037 81.2139C51.0347 81.9097 50.478 82.4849 49.8657 82.689C49.0493 82.9673 47.8433 82.856 47.5371 82.4663C47.4536 82.3643 47.4722 82.2437 47.6021 81.9468L47.769 81.5571L48.0938 81.687C48.7988 81.9839 49.6616 81.7798 49.9956 81.2324C50.1719 80.9448 50.4038 80.2397 50.3389 80.1841C50.3203 80.1655 50.1626 80.2397 49.9771 80.3418C49.5596 80.5923 48.8638 80.6665 48.3535 80.5366C47.8804 80.4067 47.2495 79.8594 47.064 79.4419C46.6929 78.542 47.1846 77.271 48.0752 76.8257C48.5205 76.6123 49.5132 76.5566 50.1069 76.7236ZM55.896 76.8071C56.9165 77.2617 57.167 78.4585 56.4062 79.21L56.1372 79.479L56.3599 79.5811C56.6475 79.7109 57.0371 80.2397 57.1113 80.6016C57.2227 81.1675 57.0649 81.7241 56.666 82.1602C56.1558 82.7168 55.6733 82.8838 54.7178 82.8281C53.9014 82.7817 53.4932 82.6333 53.0386 82.2065C52.6489 81.854 52.5098 81.5293 52.5098 80.9912C52.5098 80.4067 52.7139 79.9429 53.085 79.6831L53.354 79.4883L53.1221 79.2378C52.9922 79.1079 52.8438 78.8018 52.7788 78.5698C52.6768 78.1987 52.686 78.0781 52.8252 77.707C52.9922 77.2803 53.3633 76.9185 53.8086 76.7329C54.2168 76.5752 55.4785 76.6123 55.896 76.8071Z" fill="#0A3470"/>
<path d="M46.7859 44.4106C46.7209 44.5776 46.8972 52.1387 47.0363 54.8291C47.0827 55.7197 47.1662 57.4546 47.2219 58.6792C47.3332 61.1841 47.3518 61.3232 47.5466 61.3232C47.6301 61.3232 47.7321 61.2305 47.7785 61.1099C47.8249 60.9985 47.9362 58.8184 48.0105 56.2671C48.0847 53.7158 48.196 50.4131 48.2517 48.938C48.2981 47.4536 48.3352 45.8115 48.3166 45.2734L48.2888 44.2993L47.5652 44.2715C46.9529 44.2529 46.8415 44.2715 46.7859 44.4106Z" fill="#0A3470"/>
<path d="M43.2415 77.772C42.7498 78.0596 42.6106 78.8482 42.9817 79.2749C43.3621 79.7202 44.2063 79.7388 44.5867 79.312C44.865 79.0059 44.8279 78.2823 44.5218 77.9668C44.2249 77.6792 43.5847 77.5772 43.2415 77.772Z" fill="#0A3470"/>
<path d="M48.5576 77.9668C48.3071 78.2173 48.2422 78.3564 48.2422 78.6533C48.2422 78.8574 48.27 79.0986 48.2979 79.1821C48.3906 79.4141 48.8359 79.5996 49.3091 79.5996C49.6616 79.5996 49.7915 79.5532 50.0142 79.3306C50.6357 78.709 50.0977 77.6514 49.1606 77.6514C48.9565 77.6514 48.7803 77.7441 48.5576 77.9668Z" fill="#0A3470"/>
<path d="M54.1427 77.772C53.6417 78.2729 54.0036 78.9502 54.7643 78.9502C55.3117 78.9502 55.6642 78.6812 55.6642 78.2637C55.6642 77.8555 55.4044 77.6328 54.8385 77.5771C54.4396 77.54 54.3468 77.5679 54.1427 77.772Z" fill="#0A3470"/>
<path d="M54.3933 80.0728C53.4841 80.3326 53.6511 81.6685 54.6067 81.7984C55.822 81.9561 56.3415 80.5645 55.2375 80.1006C54.885 79.9522 54.8108 79.9522 54.3933 80.0728Z" fill="#0A3470"/>
<path d="M22.0057 18.23C21.7459 18.768 21.5232 19.2041 21.5047 19.2134C21.4861 19.2226 21.0223 19.269 20.4563 19.334C19.2039 19.4638 19.1482 19.5473 19.8255 20.2617C20.0667 20.5215 20.41 20.8833 20.5769 21.0688L20.8831 21.4028L20.6419 22.4048C20.512 22.9614 20.4285 23.4717 20.4471 23.5366C20.5398 23.7593 20.8553 23.6572 21.7366 23.147L22.5994 22.6367L23.5271 23.147C24.4734 23.6758 24.7146 23.75 24.7981 23.5366C24.826 23.4717 24.7425 22.9614 24.6126 22.414L24.3714 21.4121L25.1878 20.5957C26.2732 19.5102 26.2547 19.4731 24.8352 19.3247C24.2322 19.269 23.722 19.2041 23.7034 19.1855C23.6941 19.1762 23.4622 18.7309 23.2024 18.2021C22.9427 17.6826 22.6736 17.2558 22.5994 17.2558C22.5345 17.2558 22.2654 17.6919 22.0057 18.23Z" fill="#0A3470"/>
<path d="M72.0015 18.2299C71.4819 19.3153 71.6026 19.2411 70.2295 19.3617C69.0513 19.4638 69.042 19.538 70.0532 20.5585L70.814 21.3285L70.6192 22.2655C70.5078 22.7758 70.415 23.3046 70.415 23.4438C70.415 23.6571 70.4429 23.6757 70.6748 23.6293C70.814 23.6015 71.2964 23.3695 71.7417 23.1098C72.187 22.85 72.5767 22.6366 72.6045 22.6366C72.6231 22.6366 73.0127 22.8686 73.4487 23.1469C74.2466 23.6479 74.6177 23.7685 74.7012 23.5365C74.729 23.4809 74.6548 22.9613 74.5435 22.4047L74.3301 21.3842L75.1187 20.5863C76.1299 19.5566 76.1299 19.4638 75.0537 19.371C73.5972 19.2411 73.7271 19.3246 73.2075 18.2299C72.9107 17.5898 72.6973 17.2558 72.6045 17.2558C72.5025 17.2558 72.2984 17.5898 72.0015 18.2299Z" fill="#0A3470"/>
</svg>
