<svg width="630" height="342" viewBox="0 0 630 342" fill="none" xmlns="http://www.w3.org/2000/svg">
<path d="M-315 213.75C-315 213.75 -236.25 128.25 -157.5 128.25C-78.75 128.25 -2.38419e-06 213.75 -2.38419e-06 213.75C-2.38419e-06 213.75 78.75 299.25 157.5 299.25C236.25 299.25 315 213.75 315 213.75C315 213.75 393.75 128.25 472.5 128.25C551.25 128.25 630 213.75 630 213.75C630 213.75 708.75 299.25 787.5 299.25C866.25 299.25 945 213.75 945 213.75" stroke="#0F3D77" stroke-width="2.5"/>
<path d="M-315 128.25C-315 128.25 -236.25 42.75 -157.5 42.75C-78.75 42.75 -2.38419e-06 128.25 -2.38419e-06 128.25C-2.38419e-06 128.25 78.75 213.75 157.5 213.75C236.25 213.75 315 128.25 315 128.25C315 128.25 393.75 42.75 472.5 42.75C551.25 42.75 630 128.25 630 128.25C630 128.25 708.75 213.75 787.5 213.75C866.25 213.75 945 128.25 945 128.25" stroke="#0F3D77" stroke-width="2.5"/>
<path d="M-315 299.25C-315 299.25 -236.25 213.75 -157.5 213.75C-78.75 213.75 -2.38419e-06 299.25 -2.38419e-06 299.25C-2.38419e-06 299.25 78.75 384.75 157.5 384.75C236.25 384.75 315 299.25 315 299.25C315 299.25 393.75 213.75 472.5 213.75C551.25 213.75 630 299.25 630 299.25C630 299.25 708.75 384.75 787.5 384.75C866.25 384.75 945 299.25 945 299.25" stroke="#0F3D77" stroke-width="2.5"/>
<path d="M-315 42.75C-315 42.75 -236.25 -42.75 -157.5 -42.75C-78.75 -42.75 -2.38419e-06 42.75 -2.38419e-06 42.75C-2.38419e-06 42.75 78.75 128.25 157.5 128.25C236.25 128.25 315 42.75 315 42.75C315 42.75 393.75 -42.75 472.5 -42.75C551.25 -42.75 630 42.75 630 42.75C630 42.75 708.75 128.25 787.5 128.25C866.25 128.25 945 42.75 945 42.75" stroke="#0F3D77" stroke-width="2.5"/>
<path d="M-315 -42.75C-315 -42.75 -236.25 -128.25 -157.5 -128.25C-78.75 -128.25 -2.38419e-06 -42.75 -2.38419e-06 -42.75C-2.38419e-06 -42.75 78.75 42.75 157.5 42.75C236.25 42.75 315 -42.75 315 -42.75C315 -42.75 393.75 -128.25 472.5 -128.25C551.25 -128.25 630 -42.75 630 -42.75C630 -42.75 708.75 42.75 787.5 42.75C866.25 42.75 945 -42.75 945 -42.75" stroke="#0F3D77" stroke-width="2.5"/>
<path d="M-315 384.75C-315 384.75 -236.25 299.25 -157.5 299.25C-78.75 299.25 -2.38419e-06 384.75 -2.38419e-06 384.75C-2.38419e-06 384.75 78.75 470.25 157.5 470.25C236.25 470.25 315 384.75 315 384.75C315 384.75 393.75 299.25 472.5 299.25C551.25 299.25 630 384.75 630 384.75C630 384.75 708.75 470.25 787.5 470.25C866.25 470.25 945 384.75 945 384.75" stroke="#0F3D77" stroke-width="2.5"/>
</svg>
