<svg width="68" height="87" viewBox="0 0 68 87" fill="none" xmlns="http://www.w3.org/2000/svg">
<path d="M29.52 0.759271C29.4272 0.870599 29.4551 1.00048 29.6313 1.44579C30.1323 2.65185 30.1973 2.958 30.1973 4.07128C30.1973 5.24023 30.0488 5.92675 29.6035 6.92871C29.1118 7.9956 28.4717 8.81201 26.6812 10.6582C25.707 11.6602 24.7051 12.7363 24.4639 13.0518C23.499 14.3042 22.9517 15.4546 22.6826 16.7441C22.4692 17.7461 22.5435 19.7036 22.8218 20.7241C23.2393 22.2363 24.2134 23.9619 25.5493 25.5669C25.9482 26.04 26.2451 26.4297 26.208 26.4297C26.1802 26.4297 25.8926 26.2905 25.5771 26.1328C24.8999 25.771 23.6753 24.5928 23.1187 23.7578C22.562 22.9321 21.9404 21.5869 21.7085 20.7241C21.4302 19.6851 21.3745 17.9409 21.5693 16.6885C21.6807 15.9741 21.6899 15.7051 21.6157 15.6123C21.5322 15.5102 20.9478 15.4824 18.5635 15.4824C15.1587 15.4824 15.4185 15.3989 15.1958 16.5122C14.7505 18.6645 13.4609 20.6499 11.5312 22.1528C10.1396 23.229 8.29346 23.9062 6.36377 24.064C5.0835 24.166 4.96289 24.1938 4.84229 24.4443C4.77734 24.602 4.74023 25.7153 4.74023 27.979V31.2817L4.16504 31.2261C0.435547 30.9106 0.38916 30.9106 0.175781 31.2817C0.0830078 31.4487 0.0551758 34.8442 0.0551758 48.4634V65.4409L0.305664 65.9697C0.66748 66.749 1.26123 67.2871 2.26318 67.7603C3.73828 68.4561 5.66797 68.9292 7.61621 69.0869L8.46973 69.1519L8.93359 70.0332C9.93555 71.9443 10.9097 73.1968 12.8579 75.0337C17.5151 79.4312 25.373 84.1069 31.5889 86.1943C32.9062 86.6396 33.0176 86.6582 33.7227 86.6118C34.2886 86.584 34.7803 86.4634 35.6802 86.1572C41.1538 84.2646 47.1655 80.9155 52.0083 77.0562C54.9307 74.7275 56.8604 72.5288 58.1313 70.0889L58.623 69.1519L59.625 69.0869C62.334 68.9014 65.0059 68.02 66.0635 66.9624C66.3047 66.7212 66.6294 66.2759 66.7778 65.979L67.0376 65.4409V48.4634C67.0376 29.0273 67.1304 30.9756 66.1748 30.9756C65.8872 30.9756 65.043 31.0405 64.3008 31.1147C63.5586 31.189 62.8257 31.2539 62.6587 31.2539H62.3618L62.334 27.8677C62.3062 24.8896 62.2876 24.4722 62.1577 24.333C62.0464 24.231 61.6567 24.1475 60.7754 24.0547C60.0981 23.9897 59.2261 23.8413 58.8457 23.7393C55.5986 22.8486 52.8433 20.0283 52.0176 16.7441C51.8877 16.2432 51.7114 15.7515 51.6279 15.6587C51.4795 15.4917 51.3125 15.4824 48.5386 15.501L45.6069 15.5288L45.6162 16.0391C45.6162 16.3174 45.6533 17.0039 45.6997 17.5698C45.8203 19.3047 45.4863 20.9189 44.6699 22.5518C43.7236 24.4351 42.2949 25.8638 40.8662 26.374C40.5137 26.4946 40.5415 26.4575 41.3857 25.604C43.2783 23.7114 44.2246 21.8652 44.5957 19.3603C44.8555 17.6162 44.6421 15.3247 44.0762 13.6269C43.8257 12.8755 43.1763 11.4746 42.7124 10.7231C41.8682 9.32226 40.4116 7.5874 40.189 7.72656C40.1426 7.75439 40.0869 7.98632 40.0498 8.24609C39.8735 9.60058 39.1499 11.3447 38.4541 12.1055L38.0366 12.5601L38.0923 12.0962C38.2964 10.3149 38.2222 9.31298 37.7954 8.11621C36.9233 5.68554 35.0957 3.48681 32.5908 1.86328C31.2549 1.00048 29.7705 0.471673 29.52 0.759271ZM33.6855 8.34814C34.1401 8.93261 34.6411 9.9624 34.8359 10.7046C35.1885 12.1426 35.1143 13.1352 34.5205 14.9907C34.2329 15.8628 34.1494 16.271 34.1494 16.7627C34.1494 17.8574 34.4834 18.6367 34.9565 18.6367C35.2998 18.6367 36.1904 18.145 36.9419 17.542C38.0923 16.6328 38.5933 15.9648 38.7324 15.167L38.7974 14.8144L39.0757 15.0742C39.4746 15.4546 40.1519 16.4936 40.4116 17.1245C41.0518 18.7017 41.0981 20.854 40.5322 22.626C40.1704 23.7764 39.7437 24.4722 38.8438 25.3628C37.7676 26.439 37.3594 26.6523 36.2554 26.6894C35.8008 26.708 35.3926 26.6894 35.3555 26.6523C35.3091 26.606 35.3555 26.3184 35.4668 26.0122C35.606 25.5854 35.6338 25.335 35.5874 24.9175C35.4575 23.7393 35.1328 23.2197 33.4907 21.6055C32.1548 20.2788 31.8115 19.7407 31.6074 18.5718L31.4775 17.8481L31.2549 18.3584C30.8003 19.3511 30.6982 20.4551 30.9395 21.6147C31.0879 22.3013 31.4312 23.0249 32.1362 24.1475C32.9712 25.4927 33.1753 26.0864 32.9434 26.5317C32.8506 26.6894 32.73 26.708 31.561 26.708C30.1045 26.708 29.854 26.6431 29.1396 26.1235C27.3955 24.834 26.4771 23.3682 26.1152 21.3179C25.772 19.3232 26.2729 17.4492 27.6553 15.5845C27.9707 15.167 29.0283 13.998 30.0117 12.9868C31.2178 11.7436 31.9321 10.9365 32.2197 10.4634C32.6558 9.76757 33.1289 8.54296 33.1289 8.11621C33.1289 7.76367 33.2681 7.81933 33.6855 8.34814ZM17.6357 26.2349C17.6357 26.5503 17.3203 27.9883 17.1348 28.5356C16.7544 29.6396 16.3462 30.3169 15.4927 31.2075C14.6206 32.126 14.5557 32.2559 13.9712 34.1763C13.6836 35.1411 13.396 36.6904 13.498 36.7925C13.5166 36.811 13.7114 36.477 13.9341 36.0317C14.2217 35.438 14.4814 35.0762 14.9268 34.6309C15.8823 33.6846 17.2368 32.9238 17.979 32.9238C18.248 32.9238 18.2295 33.0259 17.7656 34.0278C16.9585 35.7627 15.7153 36.9595 13.999 37.6553L13.3218 37.9243V39.5293C13.3218 40.8374 13.3589 41.3384 13.5444 42.2383C13.8506 43.7969 13.8691 43.834 13.999 42.8784C14.2588 40.958 15.001 39.6221 16.374 38.6108C16.7637 38.3232 16.9492 38.2305 17.0234 38.3047C17.1719 38.4531 17.0977 39.8447 16.9028 40.5776C16.6616 41.4404 16.1514 42.6279 15.8081 43.1382C15.6504 43.3608 15.2515 43.8433 14.9082 44.2051C14.5742 44.5762 14.2959 44.938 14.2959 45.0308C14.2959 45.2998 14.936 46.7656 15.5205 47.814C16.0493 48.7695 16.7637 49.9014 16.8379 49.9014C16.8564 49.9014 16.7915 49.6416 16.6895 49.3169C16.3926 48.4077 16.3555 46.8213 16.6152 45.8193C16.8657 44.8452 17.2554 44.001 17.6265 43.6484L17.9141 43.3794L18.0439 43.6948C18.2017 44.0752 18.4336 45.3276 18.5171 46.2368C18.5913 47.0903 18.3779 48.5005 18.0068 49.5767C17.5615 50.8755 17.5615 50.8477 18.0068 51.4321C18.7026 52.332 21.6064 55.0039 21.4302 54.5771C21.4116 54.5308 21.1333 53.9741 20.8086 53.334C20.2705 52.2485 20.2241 52.1186 20.1499 51.293C20.0571 50.3003 20.1592 48.918 20.3818 48.1108C20.4746 47.8047 20.688 47.9624 21.0776 48.6025C21.6157 49.5117 22.126 50.7363 22.3672 51.7104C22.5527 52.4341 22.5713 52.6846 22.5156 53.6123C22.4878 54.1968 22.4321 54.8276 22.4043 55.0039L22.3486 55.3286L23.6846 55.9873C24.4175 56.3584 25.3174 56.7759 25.6792 56.915C26.3193 57.1655 26.3564 57.2026 26.3564 57.4717C26.3564 57.9634 26.1709 58.0283 25.4473 57.7964C25.104 57.6758 24.436 57.3975 23.9629 57.1655L23.1001 56.748L22.6641 56.9336C21.2817 57.5088 20.1499 57.7407 18.9531 57.6665C17.7192 57.6016 16.1514 57.0913 16.1514 56.7573C16.1514 56.6089 16.7266 56.312 17.5894 56.0244C19.1851 55.5049 20.1685 55.4492 21.2817 55.8296C21.5693 55.9316 21.8105 55.9966 21.8105 55.9873C21.8105 55.9687 21.4951 55.7368 21.1055 55.4678C20.7158 55.1987 20.1035 54.7349 19.7324 54.4473L19.0737 53.9185L17.6821 53.8628C16.8193 53.835 16.0771 53.7607 15.7339 53.6587C14.3701 53.2876 12.7466 52.2485 11.9951 51.2744C11.4849 50.6157 11.5127 50.458 12.1436 50.458C13.8042 50.458 15.9009 51.2187 17.4038 52.3691C17.645 52.5454 17.8584 52.6846 17.877 52.666C17.8955 52.6475 17.6357 52.3228 17.311 51.9424C16.7358 51.2744 15.5391 49.5674 15.0195 48.6768C14.7783 48.2593 14.7598 48.2407 14.231 48.1851C12.8301 48.0273 11.856 47.5542 10.8633 46.5615C9.87061 45.5596 9.19336 44.3071 9.19336 43.4536C9.19336 43.0269 9.36035 43.0269 10.1675 43.4536C11.4941 44.1401 12.6816 45.1421 13.5537 46.3018C13.8599 46.7007 14.1104 47.0068 14.1104 46.9697C14.1104 46.9233 13.9619 46.5615 13.7949 46.144C13.6187 45.7358 13.3589 45.0029 13.229 44.5205C13.0898 44.0381 12.8857 43.3052 12.7559 42.897L12.5332 42.1548L11.8745 41.7837C11.0024 41.3013 10.3159 40.5498 9.85205 39.5757C9.36035 38.5552 9.19336 37.8965 9.1377 36.6811C9.07275 35.271 9.11914 35.2246 9.89844 35.9853C10.9839 37.0615 11.8003 38.3882 12.2178 39.7891L12.4312 40.4849L12.4404 39.9746C12.4404 39.6963 12.5054 38.8984 12.5796 38.2119C12.8022 36.1802 12.793 36.1523 12.2549 35.4751C11.2622 34.2319 10.9097 33.0259 10.9839 31.1797C11.021 30.0015 11.2529 28.9438 11.4756 28.8696C11.5869 28.8325 12.2178 29.6953 12.5332 30.3169C12.8208 30.8921 13.1641 32.293 13.2383 33.2393L13.3032 34.0371L13.665 32.998C13.8877 32.3579 14.0825 31.5508 14.166 30.9385C14.3979 29.2964 14.7783 28.4707 15.8174 27.376C16.5967 26.5596 17.6357 25.9009 17.6357 26.2349ZM50.2549 26.5039C50.8765 26.9121 51.7207 27.7842 52.0825 28.3965C52.4443 29.0088 52.769 30.0757 52.8804 30.9756C52.936 31.4116 53.168 32.3301 53.3813 33.0166L53.7896 34.2598L53.8452 33.332C53.9102 32.3394 54.1421 31.3096 54.4668 30.5674C54.7358 29.9365 55.4873 28.8232 55.6079 28.8696C55.8306 28.9438 56.0625 29.9922 56.1089 31.0869C56.1924 32.9702 55.8306 34.2041 54.8379 35.4194L54.2905 36.0967L54.3369 36.709C54.3647 37.0522 54.4204 37.6645 54.4668 38.0728C54.5132 38.481 54.5781 39.1582 54.6152 39.5757L54.6802 40.3457L54.9956 39.3901C55.3389 38.3511 55.5894 37.8686 56.1924 37.0986C56.7212 36.4214 57.7881 35.373 57.8716 35.4565C57.9087 35.5029 57.9272 35.9761 57.9272 36.5234C57.8901 38.8892 56.8511 40.8467 55.1069 41.8579L54.4946 42.2104L54.2534 43.0176C54.1235 43.4629 53.9194 44.1587 53.8081 44.5669C53.6968 44.9751 53.4463 45.6802 53.2515 46.1348C53.0566 46.5986 52.9082 46.979 52.9175 46.9976C52.936 47.0068 53.168 46.7378 53.4277 46.3945C54.4482 45.0586 56.0439 43.7598 57.2129 43.3237C57.4912 43.2124 57.7603 43.1289 57.8066 43.1289C58.0757 43.1289 57.686 44.4092 57.1479 45.3276C56.9717 45.6245 56.5171 46.1812 56.1367 46.5708C55.2739 47.4336 54.4204 47.8882 53.2607 48.1016C52.8247 48.1851 52.4072 48.2778 52.333 48.3149C52.2588 48.3613 51.9619 48.7695 51.6836 49.2241C51.0063 50.3281 50.4033 51.1538 49.6797 51.9702C49.355 52.3413 49.0859 52.666 49.0859 52.7031C49.0859 52.7402 49.3643 52.564 49.6982 52.3042C50.4961 51.7012 51.999 50.9775 52.9731 50.7363C53.8638 50.5137 55.1904 50.4023 55.3853 50.5415C55.6821 50.7363 54.6709 51.8218 53.4185 52.6475C52.1289 53.501 51.1177 53.7978 49.2715 53.8628L47.9263 53.9092L47.5552 54.2524C47.3511 54.438 46.7573 54.9019 46.2378 55.2729C45.709 55.644 45.2822 55.9595 45.2822 55.978C45.2822 55.9966 45.5234 55.9224 45.8203 55.8203C46.5347 55.5513 47.7407 55.5605 48.7612 55.8296C49.6333 56.0615 50.8486 56.6274 50.8486 56.813C50.8486 57.147 49.3457 57.5923 47.9634 57.6665C46.8037 57.7314 45.9502 57.5737 44.707 57.0728L43.8999 56.748L43.0649 57.1748C41.9888 57.7036 40.959 58.0469 40.8198 57.9077C40.7642 57.852 40.7085 57.6665 40.7085 57.4995L40.6899 57.1934L41.9888 56.6274C42.7031 56.312 43.5938 55.9038 43.9648 55.7183C44.7256 55.3286 44.6885 55.4399 44.5308 54.0019C44.3638 52.4805 44.605 51.3486 45.4678 49.5674C45.9316 48.6025 46.3213 48.0459 46.5254 48.0459C46.8594 48.0459 47.0728 50.3931 46.8594 51.6455C46.7573 52.2856 46.0337 53.9185 45.5977 54.5122C45.3657 54.8369 45.4956 54.772 46.2285 54.1782C47.2583 53.3618 49.0303 51.5806 49.3179 51.0796L49.5684 50.6436L49.3179 50.1611C48.9653 49.4932 48.6221 48.0645 48.5571 47.0254C48.52 46.3574 48.5571 45.8657 48.6963 45.0308C49.0396 43.0547 49.1694 42.9712 49.8467 44.335C50.626 45.8936 50.8394 47.5171 50.4868 49.02C50.3848 49.4282 50.3198 49.7715 50.3291 49.79C50.3662 49.8179 51.6001 47.749 51.9062 47.1367C52.166 46.6265 52.7969 45.105 52.7969 44.9937C52.7969 44.9565 52.4629 44.5576 52.0547 44.103C50.8394 42.7485 50.0229 40.7817 49.9858 39.0654C49.9673 38.1655 50.0786 38.1191 50.8579 38.7314C52.1938 39.7798 52.7783 40.958 53.1309 43.2681L53.1958 43.7319L53.4092 42.8877C53.6597 41.8579 53.8174 40.457 53.8174 39.2881C53.8174 37.8872 53.8174 37.8965 52.9824 37.5718C52.0732 37.2285 51.6001 36.9316 50.9043 36.2729C50.2642 35.6606 49.7539 34.9463 49.3179 34.0186C48.9468 33.2393 48.9004 32.9238 49.1787 32.9238C49.5127 32.9238 50.3662 33.3042 51.0527 33.7495C51.9341 34.3247 52.6484 35.1133 53.1494 36.0596C53.3721 36.477 53.5669 36.8203 53.5762 36.8203C53.6782 36.8203 53.335 35.0947 53.0195 34.0186C52.5464 32.3857 52.2773 31.8477 51.6558 31.3281C50.6816 30.4932 49.8931 29.0088 49.6055 27.4595C49.4199 26.5039 49.4199 26.1514 49.5776 26.1514C49.6519 26.1514 49.9487 26.3091 50.2549 26.5039ZM44.1689 28.6562C44.1689 29.0273 43.9556 29.8345 43.7329 30.2612C43.4268 30.8735 42.9351 31.3931 42.4248 31.6436L41.9888 31.8569L33.7783 31.8848C28.1562 31.9033 25.4194 31.8755 25.0947 31.8105C23.9443 31.5693 23.1929 30.5395 22.9609 28.9067L22.9053 28.4707H33.5371C44.0205 28.4707 44.1689 28.4707 44.1689 28.6562ZM4.61963 33.731C4.72168 33.7681 4.74023 36.2451 4.75879 48.2222L4.78662 62.6577L5.15771 62.7783C5.72363 62.9639 7.11523 63.0195 8.13574 62.8989C8.97998 62.7876 11.1138 62.2773 14.1567 61.4517C14.8247 61.2754 16.0122 61.0156 16.8008 60.8765C18.1089 60.6445 18.4429 60.626 20.5117 60.626C22.2373 60.626 23.0073 60.6631 23.7124 60.7837C27.2378 61.396 30.1045 62.8433 32.5908 65.2832L33.4907 66.1645L34.3257 65.3667C37.6284 62.231 41.1445 60.7559 45.7461 60.5981C48.4458 60.5054 49.9858 60.728 54.2349 61.8413C58.0942 62.8433 58.4653 62.9175 59.9868 62.9268C60.7939 62.936 61.4712 62.8896 61.7588 62.8154C62.1855 62.7041 62.2505 62.6577 62.2969 62.4072C62.3247 62.2495 62.3525 55.7461 62.3525 47.9531V33.7773L62.5659 33.7217C62.6772 33.6938 63.1597 33.6382 63.6328 33.6103L64.4863 33.5454V48.9551C64.4863 60.2642 64.4585 64.4297 64.3843 64.5967C64.2544 64.8657 63.3452 65.3667 62.4453 65.6636C61.0352 66.1089 59.1055 66.2573 57.2964 66.0347C56.4893 65.9419 54.5503 65.4687 52.1475 64.7915C47.2954 63.4185 42.9165 63.6133 39.3911 65.3667C37.749 66.1831 35.9307 67.584 35.0771 68.688C34.5112 69.4302 34.4092 69.4766 33.5742 69.4766H32.8506L31.5332 68.1499C29.6963 66.3037 28.249 65.376 26.106 64.6616C24.603 64.1606 23.5918 63.9937 21.6157 63.938C18.7397 63.8545 16.9771 64.105 13.6279 65.0791C10.7891 65.8955 10.0654 66.0439 8.53467 66.1089C7.67188 66.146 6.90186 66.1182 6.41016 66.0532C5.45459 65.9141 3.86816 65.4038 3.2002 65.0142C2.78271 64.7822 2.68994 64.6802 2.63428 64.3926C2.55078 64.0122 2.55078 62.9268 2.58789 45.5503L2.60645 33.5454L3.55273 33.6196C4.06299 33.6567 4.54541 33.7031 4.61963 33.731ZM40.8755 33.8701C40.9404 33.9351 40.6807 34.9092 40.5137 35.2432C40.2817 35.6978 39.8271 36.1523 39.4004 36.375C39.0479 36.5605 38.8716 36.5605 33.5464 36.5605C28.1841 36.5605 28.0449 36.5605 27.6831 36.3657C27.1079 36.0781 26.5698 35.4102 26.3564 34.7051C26.1338 33.9814 26.1245 33.8701 26.3286 33.833C26.5513 33.7959 40.8384 33.8237 40.8755 33.8701ZM37.6748 39.0654C37.6748 39.186 37.5913 39.9004 37.4893 40.6704C36.6543 46.8213 35.7822 53.436 35.5874 55.0503C35.4575 56.1265 35.3276 57.1562 35.2998 57.3418L35.2441 57.6943H33.5928C32.4702 57.6943 31.9136 57.6572 31.8672 57.5923C31.8301 57.5366 31.561 55.5605 31.2642 53.2041C30.6704 48.4819 29.5664 40.3086 29.418 39.52C29.3716 39.251 29.3252 38.9819 29.3252 38.9448C29.3252 38.8984 31.2085 38.8613 33.5 38.8613H37.6748V39.0654ZM36.4131 59.5127C36.5244 59.5591 36.5615 59.6982 36.5615 60.0972C36.5615 61.1919 36.0234 62.0269 35.0029 62.5C34.5391 62.7227 34.3535 62.7505 33.5464 62.7505C32.7207 62.7505 32.563 62.7227 32.0898 62.4907C31.3848 62.1475 30.8745 61.5537 30.6797 60.8672C30.5034 60.227 30.4849 59.7261 30.6426 59.5684C30.7261 59.4849 31.4868 59.457 33.5093 59.457C35.0308 59.457 36.3296 59.4849 36.4131 59.5127ZM26.2451 75.7202L26.2637 78.7632L25.6885 78.7354L25.104 78.7075L25.0762 76.4624L25.0576 74.2173L24.4731 74.4956C24.1577 74.644 23.8423 74.7646 23.7866 74.7646C23.7031 74.7646 23.666 74.5698 23.666 74.106C23.666 73.4565 23.666 73.4473 23.9536 73.3452C24.1206 73.2803 24.5474 73.104 24.9092 72.937C25.3081 72.7607 25.6978 72.6494 25.8926 72.6587L26.2173 72.6772L26.2451 75.7202ZM30.7725 72.8257C31.7559 73.2988 32.1548 74.1895 32.0898 75.7295C32.0527 76.4995 31.9971 76.7686 31.7837 77.251C31.4775 77.9375 30.8281 78.5684 30.2715 78.7354C29.5107 78.9673 28.4531 78.8281 28.147 78.457C28.0542 78.3457 28.0542 78.2437 28.1748 77.9468L28.3232 77.5664L28.6572 77.7056C29.1025 77.8911 29.7798 77.8262 30.1602 77.5479C30.3271 77.4272 30.5591 77.1211 30.6797 76.8613C30.9766 76.2212 30.9673 76.1006 30.6333 76.3511C30.0303 76.7964 28.7314 76.6572 28.0913 76.0728C27.6367 75.6645 27.4697 75.2842 27.4697 74.6719C27.4697 73.8369 27.8965 73.1411 28.6294 72.8071C29.1582 72.5566 30.2529 72.5659 30.7725 72.8257ZM36.1069 72.7236C36.6357 72.8721 37.1738 73.4009 37.3965 74.0039C37.5728 74.4678 37.5913 74.6719 37.5542 75.5996C37.5264 76.416 37.4707 76.7964 37.3037 77.2139C37.0347 77.9097 36.478 78.4849 35.8657 78.689C35.0493 78.9673 33.8433 78.856 33.5371 78.4663C33.4536 78.3643 33.4722 78.2437 33.6021 77.9468L33.769 77.5571L34.0938 77.687C34.7988 77.9839 35.6616 77.7798 35.9956 77.2324C36.1719 76.9448 36.4038 76.2397 36.3389 76.1841C36.3203 76.1655 36.1626 76.2397 35.9771 76.3418C35.5596 76.5923 34.8638 76.6665 34.3535 76.5366C33.8804 76.4067 33.2495 75.8594 33.064 75.4419C32.6929 74.542 33.1846 73.271 34.0752 72.8257C34.5205 72.6123 35.5132 72.5566 36.1069 72.7236ZM41.896 72.8071C42.9165 73.2617 43.167 74.4585 42.4062 75.21L42.1372 75.479L42.3599 75.5811C42.6475 75.7109 43.0371 76.2397 43.1113 76.6016C43.2227 77.1675 43.0649 77.7241 42.666 78.1602C42.1558 78.7168 41.6733 78.8838 40.7178 78.8281C39.9014 78.7817 39.4932 78.6333 39.0386 78.2065C38.6489 77.854 38.5098 77.5293 38.5098 76.9912C38.5098 76.4067 38.7139 75.9429 39.085 75.6831L39.354 75.4883L39.1221 75.2378C38.9922 75.1079 38.8438 74.8018 38.7788 74.5698C38.6768 74.1987 38.686 74.0781 38.8252 73.707C38.9922 73.2803 39.3633 72.9185 39.8086 72.7329C40.2168 72.5752 41.4785 72.6123 41.896 72.8071Z" fill="white"/>
<path d="M32.7856 40.4106C32.7207 40.5776 32.8969 48.1387 33.0361 50.8291C33.0825 51.7197 33.166 53.4546 33.2216 54.6792C33.333 57.1841 33.3515 57.3232 33.5464 57.3232C33.6299 57.3232 33.7319 57.2305 33.7783 57.1099C33.8247 56.9985 33.936 54.8184 34.0102 52.2671C34.0844 49.7158 34.1958 46.4131 34.2514 44.938C34.2978 43.4536 34.3349 41.8115 34.3164 41.2734L34.2885 40.2993L33.5649 40.2715C32.9526 40.2529 32.8413 40.2715 32.7856 40.4106Z" fill="white"/>
<path d="M29.2417 73.772C28.75 74.0596 28.6109 74.8482 28.982 75.2749C29.3623 75.7202 30.2066 75.7388 30.5869 75.312C30.8653 75.0059 30.8282 74.2823 30.522 73.9668C30.2251 73.6792 29.585 73.5772 29.2417 73.772Z" fill="white"/>
<path d="M34.5576 73.9668C34.3071 74.2173 34.2422 74.3564 34.2422 74.6533C34.2422 74.8574 34.27 75.0986 34.2979 75.1821C34.3906 75.4141 34.8359 75.5996 35.3091 75.5996C35.6616 75.5996 35.7915 75.5532 36.0142 75.3306C36.6357 74.709 36.0977 73.6514 35.1606 73.6514C34.9565 73.6514 34.7803 73.7441 34.5576 73.9668Z" fill="white"/>
<path d="M40.1425 73.772C39.6415 74.2729 40.0033 74.9502 40.7641 74.9502C41.3114 74.9502 41.664 74.6812 41.664 74.2637C41.664 73.8555 41.4042 73.6328 40.8383 73.5771C40.4394 73.54 40.3466 73.5679 40.1425 73.772Z" fill="white"/>
<path d="M40.393 76.0727C39.4839 76.3325 39.6509 77.6684 40.6064 77.7983C41.8218 77.956 42.3413 76.5644 41.2373 76.1005C40.8847 75.9521 40.8105 75.9521 40.393 76.0727Z" fill="white"/>
<path d="M8.0059 14.23C7.74614 14.768 7.52348 15.2041 7.50492 15.2134C7.48637 15.2226 7.0225 15.269 6.45658 15.334C5.20414 15.4638 5.14848 15.5473 5.82573 16.2617C6.06694 16.5215 6.4102 16.8833 6.57719 17.0688L6.88334 17.4028L6.64213 18.4048C6.51225 18.9614 6.42875 19.4717 6.44731 19.5366C6.54008 19.7593 6.85551 19.6572 7.73686 19.147L8.59965 18.6367L9.52739 19.147C10.4737 19.6758 10.7149 19.75 10.7984 19.5366C10.8262 19.4717 10.7427 18.9614 10.6128 18.414L10.3716 17.4121L11.188 16.5957C12.2735 15.5102 12.2549 15.4731 10.8355 15.3247C10.2325 15.269 9.72221 15.2041 9.70365 15.1855C9.69438 15.1762 9.46244 14.7309 9.20268 14.2021C8.94291 13.6826 8.67387 13.2558 8.59965 13.2558C8.53471 13.2558 8.26567 13.6919 8.0059 14.23Z" fill="white"/>
<path d="M58.0015 14.23C57.4819 15.3155 57.6026 15.2412 56.2295 15.3619C55.0513 15.4639 55.042 15.5381 56.0532 16.5586L56.814 17.3286L56.6192 18.2657C56.5078 18.7759 56.415 19.3047 56.415 19.4439C56.415 19.6573 56.4429 19.6758 56.6748 19.6294C56.814 19.6016 57.2964 19.3697 57.7417 19.1099C58.187 18.8501 58.5767 18.6368 58.6045 18.6368C58.6231 18.6368 59.0127 18.8687 59.4487 19.147C60.2466 19.648 60.6177 19.7686 60.7012 19.5367C60.729 19.481 60.6548 18.9615 60.5435 18.4048L60.3301 17.3843L61.1187 16.5865C62.1299 15.5567 62.1299 15.4639 61.0537 15.3711C59.5972 15.2412 59.7271 15.3247 59.2075 14.23C58.9107 13.5899 58.6973 13.2559 58.6045 13.2559C58.5025 13.2559 58.2984 13.5899 58.0015 14.23Z" fill="white"/>
</svg>
