<svg width="28" height="28" viewBox="0 0 28 28" fill="none" xmlns="http://www.w3.org/2000/svg">
<g clip-path="url(#clip0_59_170)">
<path d="M0 14C0 6.26803 6.26803 0 14 0C21.732 0 28 6.26803 28 14C28 21.732 21.732 28 14 28C6.26803 28 0 21.732 0 14Z" fill="#FF0000"/>
<path d="M21.1546 10.5427C20.9828 9.88298 20.4768 9.36347 19.8343 9.18712C18.6698 8.8667 14 8.8667 14 8.8667C14 8.8667 9.33017 8.8667 8.16567 9.18712C7.52307 9.36347 7.01703 9.88298 6.84529 10.5427C6.53333 11.7385 6.53333 14.2334 6.53333 14.2334C6.53333 14.2334 6.53333 16.7282 6.84529 17.924C7.01703 18.5837 7.52307 19.1033 8.16567 19.2797C9.33017 19.6 14 19.6 14 19.6C14 19.6 18.6698 19.6 19.8343 19.2797C20.4768 19.1033 20.9828 18.5837 21.1546 17.924C21.4667 16.7282 21.4667 14.2334 21.4667 14.2334C21.4667 14.2334 21.4667 11.7385 21.1546 10.5427Z" fill="white"/>
<path d="M12.6 16.8V12.1333L16.3333 14.4667L12.6 16.8Z" fill="#FF0000"/>
</g>
<defs>
<clipPath id="clip0_59_170">
<rect width="28" height="28" fill="white"/>
</clipPath>
</defs>
</svg>
